# xmcd
#
# Track frame offsets:
#	150
#	15962
#	26685
#	38690
#	59295
#	69950
#	87137
#	107237
#	121180
#	142490
#	159875
#	175170
#	195442
#	209690
#	226115
#	248650
#
# Disc length: 4440 seconds
#
# Revision: 4
# Processed by: cddbd v1.5PL3 Copyright (c) Steve Scherf et al.
# Submitted via: CDex 1.50Beta5
#
DISCID=ca115610
DTITLE=小野リサ - QUESTA BOSS MIA...
DYEAR=2002
DGENRE=Blues
TTITLE0=COSA HAI MESSO NEL-CAFFE
TTITLE1=SUL COCUZZOLO
TTITLE2=NON DIMENTICAR
TTITLE3=PER IL SENTIERO
TTITLE4=PIOVE (CIAO CIAO BAMBINA)
TTITLE5=O SOLE MIO
TTITLE6=NEL BLU DIPINTO DI BLU (VOLARE)
TTITLE7=REGINELLA
TTITLE8=ROMA NUN FA LA STUPIDA STASERA
TTITLE9=QUESTI VENT' ANNI MIEI
TTITLE10=FINO A CHIAMARMI EVA
TTITLE11=E LA CHIAMANO ESTATE
TTITLE12=NINNANANNA NINNA・・・
TTITLE13=TI GUARDERO'NEL CUORE
TTITLE14=MAGIA
TTITLE15=Data Track
EXTD=
EXTT0=
EXTT1=
EXTT2=
EXTT3=
EXTT4=
EXTT5=
EXTT6=
EXTT7=
EXTT8=
EXTT9=
EXTT10=
EXTT11=
EXTT12=
EXTT13=
EXTT14=
EXTT15=
PLAYORDER=
